<?xml version="1.0" standalone="no"?>
<!DOCTYPE svg PUBLIC "-//W3C//DTD SVG 20010904//EN"
 "http://www.w3.org/TR/2001/REC-SVG-20010904/DTD/svg10.dtd">
<svg version="1.0" xmlns="http://www.w3.org/2000/svg"
 width="602.000000pt" height="264.000000pt" viewBox="0 0 602.000000 264.000000"
 preserveAspectRatio="xMidYMid meet">

<g transform="translate(0.000000,264.000000) scale(0.100000,-0.100000)"
fill="#000000" stroke="none">
<path d="M1713 2452 l-92 -77 -1 -266 0 -267 99 -81 99 -81 107 0 c104 0 108
1 145 30 21 17 40 30 43 30 2 0 10 -13 17 -30 l12 -30 94 0 94 0 0 250 0 250
-180 0 -180 0 0 -70 0 -70 55 0 55 0 0 -61 c0 -78 -12 -88 -103 -89 -112 0
-107 -11 -107 215 0 229 -7 217 127 213 l86 -3 11 -40 12 -40 112 -3 112 -3 0
83 -1 83 -84 68 -83 67 -179 -1 -178 -1 -92 -76z"/>
<path d="M2420 2437 l0 -94 38 -12 c31 -10 53 -32 140 -150 l102 -138 0 -76 0
-76 -37 -10 c-21 -6 -44 -11 -50 -11 -10 0 -13 -26 -13 -95 l0 -95 225 0 225
0 0 95 c0 69 -3 95 -12 95 -7 0 -30 5 -50 11 l-38 10 0 77 0 77 100 135 c84
114 106 137 140 150 l40 14 0 93 0 93 -165 0 -165 0 0 -96 c0 -87 2 -96 20
-101 28 -7 26 -18 -22 -90 -47 -73 -44 -73 -102 20 l-37 57 26 12 c24 11 25
14 25 105 l0 93 -195 0 -195 0 0 -93z"/>
<path d="M3310 2436 l0 -94 45 -11 45 -11 -2 -218 -3 -217 -42 -9 -43 -9 0
-93 0 -94 220 0 220 0 0 94 0 94 -48 7 c-26 3 -53 10 -60 14 -9 6 -12 45 -10
147 l3 139 75 -128 75 -127 50 2 50 3 72 125 73 125 0 -142 c0 -157 6 -145
-72 -159 l-38 -6 0 -94 0 -94 220 0 220 0 0 94 0 94 -45 11 -45 11 0 215 0
215 45 11 45 11 0 94 0 94 -184 0 -184 0 -72 -131 -73 -132 -31 55 c-17 31
-49 90 -71 132 l-40 76 -197 0 -198 0 0 -94z"/>
<path d="M1180 1974 c-327 -58 -310 -54 -330 -87 -10 -17 -22 -48 -25 -69 l-7
-40 -22 21 c-12 12 -30 21 -40 21 -24 0 -246 -49 -274 -60 -27 -12 -47 -55
-57 -124 l-7 -48 -22 21 -23 22 -104 -26 c-56 -15 -111 -31 -120 -36 -54 -29
-50 -257 10 -529 l19 -85 -23 -27 c-54 -64 -35 -145 44 -185 44 -22 45 -24 92
-155 83 -228 183 -408 227 -408 9 0 57 10 106 22 79 20 90 26 101 51 l12 29
33 -52 c53 -83 55 -83 200 -52 115 25 126 30 138 55 l14 28 27 -38 c51 -70 47
-69 189 -44 70 12 147 25 171 29 89 14 107 81 105 397 -1 121 -6 258 -12 305
-5 47 -7 88 -3 92 16 17 780 88 958 88 86 0 99 13 90 91 -6 45 -4 50 25 73
l31 24 -24 31 -24 32 -150 -6 c-190 -8 -561 -39 -774 -65 -126 -16 -166 -18
-172 -9 -4 7 -10 33 -14 58 -3 25 -21 109 -40 186 -57 239 -127 409 -187 461
-33 27 -34 27 -138 8z"/>
<path d="M4662 1966 c-71 -61 -156 -290 -216 -585 -14 -68 -27 -125 -29 -127
-1 -2 -97 7 -212 21 -254 29 -269 30 -565 49 -285 18 -510 26 -510 17 0 -6 27
-37 94 -109 l30 -32 -39 -40 c-24 -25 -35 -43 -30 -49 6 -5 114 -14 240 -20
127 -7 304 -19 395 -27 214 -19 553 -55 560 -59 3 -2 3 -37 -1 -77 -5 -40 -11
-156 -15 -258 -10 -272 16 -443 70 -455 26 -6 259 -45 307 -52 32 -5 39 -1 72
38 20 23 37 47 37 53 0 6 8 -3 18 -19 17 -28 28 -32 143 -57 143 -32 146 -31
199 52 l33 52 12 -29 c11 -25 22 -31 101 -51 113 -28 117 -28 148 9 56 66 161
290 212 453 15 49 23 60 53 72 49 20 69 41 80 81 11 40 0 87 -29 118 -19 20
-20 27 -10 64 24 89 51 262 56 361 7 109 -4 176 -31 203 -7 8 -62 26 -121 41
l-107 27 -23 -22 -23 -21 -6 38 c-10 67 -25 111 -40 124 -15 12 -252 69 -291
70 -11 0 -29 -9 -39 -20 -18 -20 -19 -20 -37 38 -10 33 -24 64 -31 71 -11 8
-384 81 -418 81 -4 0 -21 -11 -37 -24z"/>
<path d="M2758 1486 c-35 -31 -38 -37 -38 -88 0 -49 3 -57 35 -88 l36 -35 -47
-40 c-46 -40 -47 -42 -46 -100 0 -56 3 -61 39 -92 46 -40 84 -52 154 -47 43 3
59 10 85 35 l32 31 34 -31 c29 -26 45 -31 97 -34 33 -2 61 -2 61 1 0 2 -25 32
-55 67 l-55 62 40 37 41 37 -28 34 c-15 18 -33 34 -40 34 -7 1 -29 -13 -48
-31 l-36 -31 -25 25 -25 25 40 36 c37 33 40 39 42 98 3 61 2 63 -37 95 -38 33
-41 34 -129 33 -88 0 -91 -1 -127 -33z m170 -97 c4 -34 -31 -67 -52 -49 -40
32 -26 78 21 76 22 -1 29 -6 31 -27z m-2 -274 c-4 -11 -15 -15 -38 -13 -28 2
-34 8 -36 31 -2 16 2 35 9 43 11 13 16 11 42 -15 19 -19 28 -35 23 -46z"/>
<path d="M1740 705 c0 -47 3 -55 18 -55 18 0 17 -6 -7 -110 -22 -97 -28 -111
-48 -116 -20 -5 -23 -12 -23 -55 l0 -49 90 0 90 0 0 50 c0 28 -4 50 -10 50 -5
0 -10 9 -10 21 0 17 5 20 32 17 34 -3 55 -38 24 -38 -12 0 -16 -11 -16 -50 l0
-50 105 0 105 0 0 48 c0 39 -4 49 -22 57 -23 11 -23 11 -68 228 l-23 107 -118
0 -119 0 0 -55z m149 -177 c1 -5 -6 -8 -15 -8 -11 0 -14 5 -10 16 3 9 6 21 7
27 0 12 17 -20 18 -35z"/>
<path d="M2100 711 c0 -40 3 -50 20 -54 18 -5 20 -14 20 -117 0 -103 -2 -112
-20 -117 -17 -4 -20 -14 -20 -54 l0 -49 133 0 133 0 47 47 46 48 3 120 c2 99
6 120 18 120 14 0 30 -53 94 -307 6 -28 7 -28 90 -28 l83 0 44 167 c34 127 48
167 62 171 13 3 17 15 17 53 l0 49 -90 0 -90 0 0 -49 c0 -28 5 -51 11 -53 9
-3 9 -21 -1 -71 -8 -36 -17 -64 -20 -62 -4 3 -13 32 -20 67 -10 47 -11 63 -2
66 7 2 12 24 12 53 l0 49 -105 0 -105 0 0 -42 0 -42 -43 42 -43 42 -137 0
-137 0 0 -49z m225 -171 l0 -105 -27 -3 -28 -3 0 111 0 111 28 -3 27 -3 0
-105z"/>
<path d="M2890 711 c0 -40 3 -50 20 -54 18 -5 20 -14 20 -117 0 -103 -2 -112
-20 -117 -17 -4 -20 -14 -20 -54 l0 -49 105 0 105 0 0 49 c0 40 -3 50 -20 54
-18 5 -20 14 -20 117 0 103 2 112 20 117 17 4 20 14 20 54 l0 49 -105 0 -105
0 0 -49z"/>
<path d="M3167 722 c-34 -34 -37 -43 -37 -93 0 -49 4 -58 33 -87 30 -30 38
-32 100 -32 l67 0 0 -40 c0 -38 -2 -40 -31 -40 -22 0 -32 5 -36 20 -5 17 -14
20 -69 20 l-64 0 0 -38 c0 -31 7 -45 38 -75 l38 -37 90 0 90 0 37 38 c35 36
37 41 37 103 0 58 -3 68 -28 92 -23 22 -37 26 -97 29 l-70 3 0 30 c0 27 4 30
33 33 23 2 32 -1 32 -12 0 -19 56 -31 99 -21 27 6 31 11 31 39 0 24 -10 41
-38 69 l-38 37 -90 0 -90 0 -37 -38z"/>
<path d="M3527 722 l-37 -38 0 -145 0 -145 38 -37 c38 -37 38 -37 123 -37 l85
0 42 43 42 43 0 135 0 135 -43 42 -43 42 -85 0 -85 0 -37 -38z m158 -182 l0
-105 -30 0 -30 0 -3 94 c-3 114 -1 123 35 119 l28 -3 0 -105z"/>
<path d="M3840 711 c0 -40 3 -50 20 -54 18 -5 20 -14 20 -117 0 -103 -2 -112
-20 -117 -17 -4 -20 -14 -20 -54 l0 -49 95 0 95 0 0 49 c0 27 -5 51 -11 53 -6
2 -9 23 -7 48 l3 45 17 -30 c12 -23 15 -46 11 -98 l-6 -67 92 0 91 0 0 46 c0
31 -5 51 -16 58 -8 7 -24 30 -34 53 l-18 41 24 23 c21 19 24 32 24 89 0 62 -2
68 -33 98 l-33 32 -147 0 -147 0 0 -49z m228 -93 c-2 -28 -8 -34 -30 -36 -26
-3 -28 -1 -28 32 0 33 2 36 31 36 28 0 30 -2 27 -32z"/>
</g>
</svg>
